<svg xmlns="http://www.w3.org/2000/svg" pointer-events="none" class="leaflet-zoom-animated" width="931" height="451" viewBox="-153 57 931 451" style="transform: translate3d(-153px, 57px, 0px);"><g><path class="leaflet-interactive" stroke="#201920" stroke-opacity="1" stroke-width="2" stroke-linecap="round" stroke-linejoin="round" fill="none" d="M-6 261L-6 257L-7 258L-9 254L-5 252L-6 249L-3 246L-2 247L1 244L3 244L3 242L6 243L8 241L9 244L15 244L20 236L25 237L28 234L29 235L29 233L35 231L38 228L45 226L45 219L48 216L47 215L50 214L50 210L47 203L47 197L43 195L43 193L56 189L64 191L65 190L62 187L62 185L68 167L75 170L84 171L88 169L90 167L88 156L92 152L94 153L97 151L99 147L98 146L100 144L106 144L108 151L113 153L115 157L121 157L122 160L125 159L125 161L128 163L130 170L132 170L133 173L133 176L131 178L132 181L130 184L131 191L132 190L135 192L136 191L142 193L152 193L163 201L168 201L167 204L169 204L170 209L176 218L182 217L201 220L217 220L224 225L225 224L230 227L240 228L241 230L245 231L248 228L265 221L275 222L286 219L294 211L298 210L301 207L297 201L298 196L301 192L314 196L318 194L323 188L330 188L336 183L335 182L340 177L344 177L345 174L349 175L351 173L356 172L358 174L365 173L364 168L354 158L349 157L345 161L336 159L333 162L330 159L330 157L332 155L339 135L347 139L354 134L360 132L361 129L359 129L359 127L364 120L366 112L369 109L371 109L372 106L371 101L369 99L366 100L366 98L374 90L375 91L391 87L395 87L399 90L400 89L402 92L405 93L411 93L411 96L413 96L414 100L417 102L416 105L418 106L417 107L420 112L419 113L421 114L421 120L424 123L425 130L427 130L426 135L429 139L436 138L436 140L442 140L442 142L444 142L448 147L452 147L450 150L453 154L451 156L455 162L466 161L471 156L473 157L480 153L487 153L484 154L483 159L485 161L479 167L480 168L477 175L478 178L471 191L468 192L461 189L459 191L460 192L454 194L457 204L457 210L455 216L450 218L451 221L448 218L448 216L445 215L444 220L442 222L441 221L438 226L430 226L433 231L431 233L424 232L422 230L423 229L421 229L422 228L419 229L414 238L407 241L401 246M34 328L31 325L31 323L34 320L36 324L38 322L38 318L33 312L33 308L36 305L30 301L28 293L23 294L16 291L16 289L13 290L11 287L12 284L9 281L7 281L7 279L-1 277L1 275L3 276M260 418L258 418L259 415L257 415L259 411L257 409L252 410L248 406L246 406L244 410L239 410L236 413L234 411L232 411L229 414L226 411L224 411L223 414L218 413L218 425L214 424L214 420L206 422L206 420L204 420L203 417L199 417L199 411L201 409L196 407L196 403L194 401L196 399L190 399L186 401L185 400L187 398L185 396L187 392L186 391L194 383L193 382L195 378L195 370L192 367L192 369L190 367L190 363L186 361L186 359L184 361L185 362L183 362L184 365L181 367L174 362L170 362L167 363L167 365L164 367L159 368L153 374L149 375L141 375L141 369L137 369L136 364L131 365L122 362L118 366L116 371L114 369L115 364L113 363L111 365L106 366L102 366L97 363L95 365L93 363L93 365L89 361L86 362L85 358L82 359L77 354L77 352L73 354L68 349L66 349L66 347L65 348L64 346L62 346L61 343L56 342L54 346L40 336L37 337L34 334L34 328M269 422L264 421L260 418M280 467L283 471L284 476M288 500L286 508M356 508L357 502M358 469L358 478M366 444L361 452M381 420L375 428M386 405L388 395"/><path class="leaflet-interactive" stroke="#201920" stroke-opacity="1" stroke-width="2" stroke-linecap="butt" stroke-linejoin="round" stroke-dasharray="4,4" stroke-dashoffset="4" fill="none" d="M3 276L5 274L3 272L3 264L-2 261L-4 263L-6 261"/><path class="leaflet-interactive" stroke="gray" stroke-opacity="1" stroke-width="1" stroke-linecap="round" stroke-linejoin="round" stroke-dasharray="8,4,4,4" fill="none" d="M314 416L314 416M319 413L317 413L316 416L321 416L321 414L319 413"/><path class="leaflet-interactive" stroke="#4190da" stroke-opacity="1" stroke-width="1" stroke-linecap="round" stroke-linejoin="round" fill="none" d="M318 415L318 413L316 414L315 411L314 416L312 418L311 417L311 419L308 418L306 420L303 419L301 421L291 423L287 426L287 428L290 431L288 433L284 433L282 427L284 423L282 421L280 423L278 423L278 421L269 422M288 425L288 425M288 425L288 427L288 425M314 416L314 416M318 415L318 415M318 415L318 415M318 415L318 415M365 376L362 377L364 377L365 380L362 381L363 384L361 386L365 386L363 388L360 387L360 389L358 389L359 390L358 391L358 389L356 393L355 392L356 393L354 396L351 395L351 397L345 404L341 404L337 410L331 410L329 412L327 410L324 413L322 411L322 413L321 414L321 412L319 414L321 414L318 415M365 376L365 376M380 354L378 358L379 361L376 364L375 363L374 366L373 365L365 378L364 377L366 375L365 376M378 280L376 282L372 282L373 285L372 284L371 287L368 288L368 286L368 288L359 299L369 307L373 317L373 321L378 325L377 326L381 328L381 330L376 328L374 330L376 332M376 332L382 337L381 338L383 340L379 338L374 341L377 342L381 347L383 347L380 349L382 350L381 354M378 280L378 280M378 280L378 280M384 254L381 258L377 260L374 259L379 256L379 254L378 255L375 252L377 252L377 250L384 243L383 240L382 241L380 239L375 238L370 243L370 245L363 248L360 251L360 253L354 257L354 259L351 258L351 256L349 256L347 260L347 264L349 264L349 266L356 267L359 270L360 269L360 271L357 272L357 274L360 277L364 277L364 275L368 272L367 271L371 270L377 272L377 274L383 273L387 275L384 280L378 280M378 280L378 280M380 354L380 354M380 354L380 354M380 354L380 354M381 354L380 354M381 354L381 354M383 346L383 346M383 346L383 346M383 346L383 346M384 346L383 346M383 346L381 344L383 344L384 346M384 346L384 346M384 344L385 343L384 344M384 344L384 344M384 254L384 254M401 246L399 250L393 250L384 254M385 339L385 339M385 339L385 339M387 338L387 338M276 421L276 421M278 426L278 426M281 436L281 436M282 451L274 447L274 441L279 436L291 433L294 437L291 440L289 446L283 449L282 451M288 429L288 429M289 425L289 425M290 426L290 424L290 426M290 432L290 432M290 427L290 427M295 470L295 470M297 460L298 459L297 460M297 465L297 465M298 465L298 465M298 464L298 464M298 467L298 467M298 464L298 464M299 464L299 464M299 467L300 466L299 467M299 465L300 464L299 465M299 468L299 468M301 466L301 466M303 462L303 462M303 471L303 471M303 460L304 461L303 460M304 461L304 461M304 462L304 462M305 466L304 467L305 466M305 421L305 421M305 469L306 468L305 469M305 465L306 464L305 465M306 421L306 421M306 465L307 466L306 465M307 420L306 421L307 420M307 466L307 466M307 463L307 463M308 421L307 420L308 421M308 421L308 421M308 462L308 462M309 439L309 439M309 419L309 419M310 418L310 418M310 419L310 419M311 418L311 418M314 416L314 416M315 418L315 418M315 472L315 472M315 418L315 418M315 418L315 418M315 418L315 418M316 414L316 414M316 417L316 417M316 442L316 442M316 416L318 416L316 416M316 473L316 473M316 471L317 472L316 471M317 470L317 470M317 474L317 474M318 469L318 469M318 416L318 416M319 418L319 418M319 415L319 415M319 418L319 418M319 468L319 468M319 417L319 417M319 473L319 473M319 416L319 416M319 472L320 473L319 472M320 507L320 507M320 413L320 413M320 415L320 415M320 506L320 506M321 468L321 468M321 472L321 472M322 507L322 507M322 472L322 472M322 507L323 506L322 507M322 414L322 414M323 506L323 506M323 467L323 467M324 470L324 470M325 468L325 468M328 486L328 486M333 426L333 426M333 425L334 426L333 425M339 466L339 466M339 506L340 507L339 506M339 429L339 429M340 428L340 430L340 428M343 405L341 405L343 405M347 476L348 475L347 476M350 396L350 396M351 396L350 395L351 396M351 397L352 396L351 397M353 396L352 397L353 396M355 257L355 257M356 256L356 256M356 256L357 257L356 256M361 407L361 407M361 390L362 389L361 390M362 406L362 406M362 403L362 403M362 403L362 403M362 386L362 386M363 381L363 381M363 404L362 405L363 404M363 385L363 385M363 386L363 386M363 377L364 376L363 377M363 388L363 388M363 388L363 388M364 377L364 377M365 386L365 386M365 381L365 381M365 383L365 383M366 405L366 405M366 380L365 381L366 380M366 378L366 378M367 378L367 378M367 377L367 377M367 375L367 375M367 291L367 291M368 374L368 374M368 415L368 415M368 374L368 374M369 271L369 271M370 379L370 379M371 269L370 268L371 269M371 418L367 411L366 404L372 394L377 389L379 389L381 391L381 396L377 408L373 413L373 419L371 418M371 268L371 268M371 269L371 269M372 267L372 267M372 242L372 242M372 265L372 265M373 264L373 264M373 265L373 265M374 284L374 284M374 365L374 365M374 369L374 369M374 365L375 364L374 365M375 365L376 364L375 365M377 329L382 332L381 333L375 329L377 329M377 322L377 322M377 412L377 412M378 417L378 417M379 418L379 418M379 332L379 332M379 354L379 354M380 358L380 358M380 334L378 333L380 334M380 333L382 334L380 333M380 345L380 345M380 357L380 357M380 358L381 357L380 358M381 360L381 360M381 345L380 346L381 345M381 334L381 334M381 360L381 360M381 387L381 387M381 393L381 393M381 345L381 345M381 335L382 334L381 335M381 343L381 343M382 354L382 354M382 348L382 348M382 346L382 346M382 344L382 344M382 340L382 340M382 346L382 346M382 346L382 346M383 346L383 346M383 346L383 346M383 344L383 344M383 343L384 344L383 343M383 344L383 344M383 351L383 351M383 349L382 348L383 349M383 349L383 349M383 346L384 347L383 346M384 347L384 347M384 347L384 347M384 349L383 348L384 349M384 347L385 346L385 348L384 347M385 256L385 256M385 346L385 346M385 342L385 342M386 342L386 342M386 256L386 256M386 255L386 255M386 340L386 340M387 256L388 255L387 256M388 345L388 345M388 258L387 257L388 258M388 339L388 339M388 339L388 339M390 252L389 253L390 252M390 253L390 253M391 258L391 258M392 385L394 385L392 385M394 384L394 384M395 383L396 384L395 383M395 386L395 386M395 385L395 385M395 386L395 386M395 250L395 250M402 383L401 384L402 383"/><path class="leaflet-interactive" stroke="#747569" stroke-opacity="0.6" stroke-width="1" stroke-linecap="round" stroke-linejoin="round" fill="none" d="M122 287L113 284L103 284L95 286L92 291L84 291L77 295L68 294L67 291L63 291L63 293L61 293L59 296L47 294L47 296L45 298L44 297L43 302L41 304L40 303L36 305M186 322L184 322L184 324L181 327L179 327L178 330L175 328L174 331L172 329L169 330L167 328L168 325L167 326L165 324L167 324L165 324L162 321L156 323L151 322L149 320L142 320L137 317L131 317L127 315L121 307L123 307L123 299L121 299L120 296L123 290L119 288L122 287M144 258L137 259L135 261L129 261L128 263L125 264L126 266L128 266L128 271L130 271L135 278L133 278L130 281L130 283L133 284L131 288L125 286L123 288L122 287M219 312L218 313L217 311L215 311L211 307L211 305L212 304L221 307L221 305L223 305L220 302L220 300L224 296L223 295L227 293L226 290L228 290L229 288L227 282L224 279L226 277L220 271L219 272L215 270L206 263L206 265L204 265L196 257L191 258L189 260L184 256L180 256L181 261L178 264L178 266L176 265L174 267L170 264L161 265L159 260L155 261L155 259L150 259L149 256L144 258M176 218L172 221L174 224L172 228L167 230L164 229L156 236L154 240L148 241L146 251L143 255L144 258M239 274L232 270L232 264L236 262L239 257L237 255L238 254L235 253L229 257L225 255L219 257L221 259L219 261L212 258L211 254L201 249L207 241L206 238L198 238L198 240L197 239L194 241L194 239L191 241L191 238L188 236L186 232L187 230L182 217M198 353L196 339L193 334L196 333L192 329L190 323L186 322M219 312L218 317L214 315L215 320L209 322L207 320L206 321L204 317L203 320L196 317L192 307L188 306L186 307L186 309L184 309L184 311L187 314L184 317L185 318L183 318L184 321L186 322M190 363L190 361L194 363L194 355L196 357L196 353L198 353M247 367L246 364L242 366L240 364L240 358L236 358L236 361L232 363L233 366L228 371L229 378L226 381L226 379L219 382L219 380L217 380L217 376L211 368L212 367L210 365L208 367L205 364L205 359L202 357L200 359L200 363L198 361L198 353M249 318L248 321L242 321L239 318L240 315L238 311L231 310L228 305L222 309L225 312L220 317L219 312M266 270L263 267L257 265L261 258L259 254L255 255L255 257L254 256L252 260L252 268L250 271L239 274M239 274L241 274L248 281L247 282L249 286L249 291L251 291L251 293L253 293L256 296L256 292L261 289L261 287L257 285L257 279L259 277L263 277M247 367L247 369L243 371L239 371L236 369L234 373L235 378L241 376L242 377L239 386L242 389L244 389L241 394M241 394L241 396L245 396L247 400L252 399L254 401L253 405L252 404L249 407M281 382L280 385L277 384L276 385L278 385L278 387L275 386L274 389L270 387L271 388L267 390L264 389L263 386L253 394L246 391L242 395L241 394M256 360L254 358L250 360L250 362L251 361L255 363L256 365L254 367L247 367M263 277L263 279L270 283L271 282L274 285L274 294L272 296L267 295L267 299L257 297L258 300L256 302L259 305L257 305L258 312L252 312L251 315L253 316L250 319L249 318M273 325L267 325L266 323L264 323L265 322L263 323L261 321L262 320L255 321L253 319L250 320L249 318M279 360L278 363L276 363L272 355L268 355L266 353L264 353L264 357L261 356L259 360L257 360L257 358L256 360M256 360L255 356L251 356L251 354L247 350L251 346L249 344L253 342L255 344L258 343L258 345L261 346L264 343L264 339L269 338L269 334L273 331L271 327L273 325M263 277L263 273L266 270M294 254L294 252L291 255L288 255L286 253L287 254L285 256L284 255L285 256L278 263L278 268L276 268L274 272L266 270M273 325L282 330M282 330L287 335L287 337L281 341L272 341L272 343L274 344L272 348L274 348L277 351L276 352L278 351L279 354M279 354L279 360M317 355L315 355L314 348L310 351L309 348L304 351L300 347L296 347L294 345L290 345L290 349L283 348L283 350L282 349L279 354M281 382L281 380L279 380L281 372L276 373L276 371L278 371L277 370L281 368L279 360M301 394L300 393L297 395L297 391L293 391L297 384L295 384L294 379L290 379L287 383L285 381L283 383L281 382M293 315L291 317L289 315L281 315L283 319L284 318L287 321L283 321L281 323L282 330M283 422L283 423M283 422L287 418L288 419L288 417L291 416L291 414L294 411L296 411L296 405L301 400L300 399L302 397L301 394M284 434L285 434M286 434L288 433M288 302L287 299L290 292L288 278L292 272L289 269L289 267L292 264L293 259L295 257L294 254M288 302L293 315M288 302L298 300L301 297L302 298L302 296L308 296L314 292L315 285M289 433L290 432M328 333L326 331L323 332L322 329L317 330L315 326L316 325L314 323L312 325L310 323L303 324L299 322L293 315M293 316L293 316M318 240L318 242L308 244L308 246L305 244L300 252L297 251L297 253L294 254M301 394L303 390L307 390L307 392L309 392L310 389L308 389L310 387L314 389L317 387M329 287L326 286L325 288L315 285M315 285L313 281L315 281L315 279L316 280L315 277L318 274L318 270L316 266L314 266L314 262L316 260L315 258L320 257L322 253L321 250L317 248L317 246L318 247L318 245L321 244L319 242L320 241L318 240M335 348L333 349L329 347L329 349L327 349L324 352L320 352L317 355M317 387L317 383L319 381L317 381L318 378L316 376L316 371L314 369L314 367L319 362L319 358L317 355M317 387L317 389L323 389L323 391L321 391L319 395L321 396L328 393L332 395L331 394L333 392M359 234L352 233L352 225L351 226L349 224L350 223L348 219L342 221L338 227L337 226L334 229L332 227L328 229L328 231L324 231L325 227L321 225L319 231L316 232L318 240M335 302L335 304L338 305L339 308L336 311L332 307L330 309L331 312L329 312L328 315L324 317L327 320L327 322L333 322L333 328L330 329L328 333M335 348L332 342L332 338L334 336L328 333M349 265L344 270L340 270L337 273L336 272L335 275L333 275L333 277L328 282L329 287M335 302L329 302L329 300L327 300L327 298L326 299L324 297L332 289L334 289L334 287L328 291L329 287M333 392L332 389L339 378L338 375L342 373L343 370L341 368L344 367L344 365L347 366L353 362M343 404L340 395L338 395L336 393L337 392L333 392M351 352L351 350L347 350L344 347L342 347L343 348L340 350L339 349L341 347L339 345L335 348M336 302L335 302M360 298L356 298L356 300L353 301L352 304L349 301L347 303L344 302L344 304L340 298L337 299L336 302M363 335L362 336L360 334L356 334L355 333L357 331L355 331L355 329L354 330L352 328L354 326L353 325L355 325L354 322L358 322L359 319L356 318L356 320L352 320L352 318L349 315L351 311L347 311L348 310L345 307L336 302M345 245L343 243L346 240L342 240L338 236L336 238L337 239L331 242L333 244L329 248L329 250L332 253L336 253L338 251L340 252M347 262L344 263L339 260L341 256L340 252M341 251L340 252M341 251L343 251L343 247M343 247L340 248L341 251M343 404L344 405M345 245L343 247M344 406L345 406M345 245L348 248L346 248L346 250L350 256M351 352L357 346L356 345L361 342L359 340L362 339L363 335M351 352L350 355L353 358L353 362M369 372L368 369L364 371L362 367L359 370L356 369L356 362L353 362M359 234L361 232L361 222L366 227L366 229L372 223L373 224L376 221L380 221L382 218L390 218L393 215L395 215L395 211M364 248L364 245L361 242L359 242L359 240L356 239L359 234M373 336L370 339L363 335M371 373L372 373M372 264L374 264M381 331L376 328L375 334L373 336M376 340L373 336M377 340L378 340M393 170L393 172L392 171L390 173L385 166L386 163L400 151L402 157L404 145L408 143L407 135L414 120L408 112L405 114L405 116L390 117L387 108L388 105L384 101L381 104L379 104L379 102L376 100L380 94L378 90M378 340L379 339M380 339L381 339M382 338L383 338M385 338L386 338M387 337L388 337M457 210L452 210L448 204L446 206L446 204L443 206L442 205L440 209L438 209L434 203L433 198L430 201L431 202L428 203L425 197L422 198L423 193L421 191L413 191L411 187L402 188L398 184L398 178L391 179M391 179L390 175L395 173L395 171L394 172L393 170M391 179L388 181L388 185L385 182L382 183L380 181L379 184L382 186L384 190L382 193L384 201L389 200L391 198L394 207L394 209L392 209L395 211M393 170L393 170M393 170L393 170M393 170L393 170M395 211L396 210L401 215L401 217L404 214L405 215L407 223L409 225L410 224L408 226L408 230L410 230L409 231L412 234L410 238L412 238M252 294L253 293L252 294M281 376L282 375L281 376M309 348L309 348"/><path class="leaflet-interactive" stroke="#3388ff" stroke-opacity="0" stroke-width="3" stroke-linecap="round" stroke-linejoin="round" fill="#eee" fill-opacity="0.5" fill-rule="evenodd" d="M344 241L346 241L341 240L339 236L334 241L331 242L333 244L332 246L329 247L329 250L332 253L336 253L338 251L339 252L341 250L340 247L345 246L343 244L344 241z"/><path class="leaflet-interactive" stroke="#3388ff" stroke-opacity="0" stroke-width="3" stroke-linecap="round" stroke-linejoin="round" fill="#eee" fill-opacity="0.5" fill-rule="evenodd" d="M348 254L349 253L346 250L346 248L348 248L345 245L343 247L343 251L340 252L341 256L339 260L347 262L349 258L348 257L350 255L347 254zM348 254L348 254z"/><path class="leaflet-interactive" stroke="#3388ff" stroke-opacity="0" stroke-width="3" stroke-linecap="round" stroke-linejoin="round" fill="#eee" fill-opacity="0.5" fill-rule="evenodd" d="M345 241L343 243L348 248L346 248L346 250L353 259L360 253L360 250L364 248L362 242L360 242L357 239L357 237L360 234L352 233L352 225L351 226L349 224L350 223L348 219L342 221L339 227L333 227L328 229L328 231L325 230L325 227L323 225L321 225L319 231L316 232L316 236L320 244L322 244L317 247L321 249L321 255L317 257L314 262L314 266L317 268L318 271L315 277L316 278L313 282L316 285L325 288L327 286L328 287L328 283L332 279L333 275L336 273L337 274L340 270L344 270L349 265L346 262L342 262L339 260L341 256L339 251L337 253L331 253L329 251L329 248L333 244L331 242L334 241L339 236L341 240L345 241zM343 247L340 248L341 251L343 251L343 247zM348 254L347 254zM356 256L356 257z"/><path class="leaflet-interactive" stroke="#3388ff" stroke-opacity="0" stroke-width="3" stroke-linecap="round" stroke-linejoin="round" fill="#eee" fill-opacity="0.5" fill-rule="evenodd" d="M288 302L298 300L301 297L302 298L302 296L308 296L314 292L315 285L313 281L316 279L315 278L318 273L317 268L314 265L316 261L315 258L320 257L322 253L321 250L317 247L322 244L320 244L319 240L314 244L311 243L308 244L307 246L305 244L300 252L298 251L295 254L292 264L289 267L289 269L292 272L288 278L290 290L287 299L288 302z"/><path class="leaflet-interactive" stroke="#3388ff" stroke-opacity="0" stroke-width="3" stroke-linecap="round" stroke-linejoin="round" fill="#eee" fill-opacity="0.5" fill-rule="evenodd" d="M182 217L187 230L185 232L191 238L191 241L195 241L197 239L198 240L198 238L205 238L207 241L206 245L201 249L211 254L211 258L214 258L217 261L219 261L221 259L219 257L224 255L228 257L232 254L237 253L239 257L236 262L232 264L232 270L240 274L249 271L252 268L252 260L254 256L255 257L255 255L258 254L261 257L261 259L257 265L260 267L264 267L264 269L269 270L269 272L274 272L275 269L278 268L277 265L285 256L284 255L285 256L287 254L286 253L288 255L290 255L293 252L295 254L298 251L299 252L305 244L307 246L311 243L314 244L318 242L316 232L319 231L321 225L323 225L325 227L324 230L327 231L332 227L334 229L337 226L338 227L341 225L341 221L345 221L348 219L350 223L349 224L351 226L352 225L352 233L359 234L361 232L361 226L359 224L361 222L366 227L366 229L372 223L373 224L376 221L380 221L386 217L389 218L395 214L395 212L392 209L394 209L394 207L391 198L384 202L382 195L384 191L379 184L380 181L382 183L385 182L388 185L388 181L391 179L390 175L395 173L394 170L392 170L393 171L391 173L389 172L389 170L385 166L386 163L394 158L400 151L402 157L404 145L408 143L407 135L414 120L408 112L405 114L405 116L390 116L387 109L388 104L386 104L383 101L380 104L376 100L380 94L379 91L374 90L366 98L366 100L371 100L372 107L365 114L366 115L361 122L362 123L359 129L361 129L360 132L347 139L339 135L332 151L332 155L330 156L330 159L333 162L336 159L345 162L349 157L354 158L364 168L365 173L363 175L358 174L356 172L348 175L346 174L344 177L340 177L335 183L336 184L331 188L323 188L318 194L314 196L308 195L305 192L300 192L297 200L301 208L293 212L288 218L276 222L265 221L256 224L245 231L242 230L241 228L230 227L226 224L224 225L217 220L196 220L183 218z"/><path class="leaflet-interactive" stroke="#3388ff" stroke-opacity="0" stroke-width="3" stroke-linecap="round" stroke-linejoin="round" fill="#eee" fill-opacity="0.5" fill-rule="evenodd" d="M394 250L398 250L405 242L406 243L412 238L412 234L409 231L410 230L408 230L408 226L410 224L409 225L407 223L407 219L404 214L401 217L401 214L396 210L394 215L391 216L392 217L385 217L385 219L383 218L380 221L376 221L366 229L366 227L361 222L359 224L361 226L361 231L357 236L357 239L360 242L362 242L364 248L370 245L370 243L375 238L380 238L384 242L381 245L382 246L377 250L378 251L375 253L379 255L379 257L378 256L378 258L377 257L375 261L380 258L381 259L380 258L386 253L394 250zM387 255L387 255zM384 256L384 256zM387 255L388 256L387 255zM388 258L387 257L388 258zM390 252L389 253L390 252zM386 255L386 256zM372 242L372 242zM390 253L390 253zM391 258L391 258zM395 250L396 250z"/><path class="leaflet-interactive" stroke="#3388ff" stroke-opacity="0" stroke-width="3" stroke-linecap="round" stroke-linejoin="round" fill="#eee" fill-opacity="0.5" fill-rule="evenodd" d="M443 222L445 215L447 215L451 221L451 219L449 218L453 217L456 214L457 211L449 208L449 204L447 206L445 204L441 206L440 209L438 209L434 203L433 198L430 201L431 202L428 203L425 197L422 198L423 193L421 191L413 191L411 187L407 189L405 187L402 188L398 184L398 180L396 178L392 178L388 181L388 185L385 182L382 183L380 181L379 184L382 186L384 191L382 193L384 201L386 202L391 198L394 207L394 209L392 209L394 211L396 210L399 213L400 212L400 215L402 217L404 214L405 215L407 223L409 225L410 224L408 226L408 230L410 230L409 231L412 234L412 238L415 237L421 228L425 232L432 233L430 226L438 226L441 221L443 222z"/><path class="leaflet-interactive" stroke="#3388ff" stroke-opacity="0" stroke-width="3" stroke-linecap="round" stroke-linejoin="round" fill="#eee" fill-opacity="0.5" fill-rule="evenodd" d="M394 179L398 179L398 183L402 188L405 187L407 189L411 187L413 191L421 191L423 193L422 198L425 197L429 203L431 203L430 200L433 198L434 203L438 209L440 209L440 207L445 204L447 206L449 204L449 208L455 211L456 204L454 195L461 190L470 193L471 192L471 188L478 177L477 176L480 168L479 167L484 162L484 154L487 152L471 156L468 159L467 158L468 159L466 161L455 162L451 157L453 155L450 150L452 147L448 147L441 140L438 141L435 138L429 139L427 137L427 130L425 130L424 123L421 120L422 117L420 117L421 114L419 113L420 112L417 108L418 107L414 99L415 98L411 96L412 95L410 93L404 93L394 87L379 89L378 90L380 94L375 100L378 101L379 104L381 104L384 101L388 105L387 108L390 117L405 116L407 112L414 119L412 127L407 134L408 142L404 144L402 157L400 151L389 162L386 163L385 166L390 173L392 171L393 172L393 170L394 172L395 171L395 173L390 174L391 178L394 179z"/><path class="leaflet-interactive" stroke="#3388ff" stroke-opacity="0" stroke-width="3" stroke-linecap="round" stroke-linejoin="round" fill="#eee" fill-opacity="0.5" fill-rule="evenodd" d="M373 336L377 340L382 337L377 332L375 332L373 336zM381 331L376 328L375 329L378 332L382 332zM380 334L378 332L380 334zM380 333L383 334L380 333zM379 332L378 332zM381 335L381 334zM381 334L381 334z"/><path class="leaflet-interactive" stroke="#3388ff" stroke-opacity="0" stroke-width="3" stroke-linecap="round" stroke-linejoin="round" fill="#eee" fill-opacity="0.5" fill-rule="evenodd" d="M344 303L343 304L340 299L336 301L343 307L346 307L348 311L350 311L349 316L351 316L353 320L357 318L359 320L358 323L354 321L355 324L352 328L354 330L355 329L355 331L357 331L355 334L361 334L360 335L364 335L370 339L377 331L375 330L376 328L381 331L381 328L373 320L369 307L361 301L359 297L356 298L353 304L351 304L349 301L347 303L344 303z"/><path class="leaflet-interactive" stroke="#3388ff" stroke-opacity="0" stroke-width="3" stroke-linecap="round" stroke-linejoin="round" fill="#eee" fill-opacity="0.5" fill-rule="evenodd" d="M353 362L356 363L356 369L359 370L363 367L364 370L368 369L370 372L371 368L375 366L374 363L375 364L379 362L379 354L382 353L380 349L383 347L379 346L374 341L376 339L373 336L370 339L364 335L362 339L359 340L361 342L358 343L356 345L357 346L350 353L350 355L353 358L353 361zM383 346L384 347L384 345L382 344L383 346zM383 344L383 345zM384 349L384 349zM385 339L385 339zM383 343L384 344L383 343zM384 344L384 343zM382 354L382 353zM385 347L385 347zM385 342L385 342zM380 357L381 357zM384 347L384 348zM380 354L380 354zM375 368L375 368zM381 339L382 340L381 339zM381 360L381 360zM383 349L382 348L383 349zM385 346L385 347zM386 340L386 340zM381 360L381 360zM382 344L382 344zM385 346L385 346zM380 346L381 345L380 346zM374 369L374 369zM381 353L382 354L381 353zM382 348L382 349zM381 345L381 345zM381 343L381 343zM383 346L383 346zM384 349L384 348zM375 366L375 366zM388 345L388 345zM384 343L384 343zM384 347L384 347zM388 339L388 339zM374 365L375 364L374 365zM375 365L376 364L375 365zM385 346L385 346zM388 339L388 339zM383 346L384 346zM382 346L382 346zM374 365L374 364zM385 347L385 347zM383 346L383 346z"/><path class="leaflet-interactive" stroke="#3388ff" stroke-opacity="0" stroke-width="3" stroke-linecap="round" stroke-linejoin="round" fill="#eee" fill-opacity="0.5" fill-rule="evenodd" d="M338 308L339 309L335 311L331 307L331 312L329 312L328 315L324 317L327 320L327 322L333 322L333 329L331 329L328 332L332 336L334 336L331 340L335 348L338 347L338 345L341 347L339 349L340 350L343 347L345 347L346 350L353 351L357 346L356 345L361 342L359 340L361 340L363 336L360 335L361 334L355 334L357 332L353 328L355 324L354 321L358 323L359 320L357 318L353 320L351 316L349 316L351 311L347 311L348 309L346 307L342 307L337 302L335 303L336 305L338 305L338 308zM356 332L357 332zM339 349L339 349zM329 323L329 323z"/><path class="leaflet-interactive" stroke="#3388ff" stroke-opacity="0" stroke-width="3" stroke-linecap="round" stroke-linejoin="round" fill="#eee" fill-opacity="0.5" fill-rule="evenodd" d="M358 392L357 389L359 391L358 390L361 389L359 389L359 387L365 387L361 385L363 385L363 381L365 379L363 377L365 377L365 375L366 376L364 378L367 377L366 376L369 373L369 371L364 371L362 367L360 370L357 369L355 361L352 362L352 364L348 366L345 365L342 368L343 370L338 375L339 378L337 382L334 384L332 392L336 392L338 394L337 395L340 394L341 401L344 404L351 398L350 395L354 396L356 394L355 393L358 392zM353 396L352 397L353 396zM361 390L362 389L361 390zM362 386L362 386zM365 381L365 380zM351 397L351 396zM365 376L365 376zM351 396L350 395L351 396zM365 381L365 381zM363 381L362 381zM366 378L366 378zM363 386L363 385zM364 377L364 377zM367 377L367 377zM368 374L368 374zM367 375L367 375zM363 377L364 376L363 377z"/><path class="leaflet-interactive" stroke="#3388ff" stroke-opacity="0" stroke-width="3" stroke-linecap="round" stroke-linejoin="round" fill="#eee" fill-opacity="0.5" fill-rule="evenodd" d="M351 352L350 350L346 350L345 347L343 347L340 350L339 349L341 347L339 345L333 349L329 347L329 349L327 349L324 352L320 352L317 355L319 357L319 362L315 366L314 370L316 370L315 373L318 378L317 380L319 380L317 388L323 389L319 394L321 396L328 393L331 395L332 394L334 385L339 378L338 375L343 371L342 368L345 365L348 366L353 363L353 359L350 355L351 352z"/><path class="leaflet-interactive" stroke="#3388ff" stroke-opacity="0" stroke-width="3" stroke-linecap="round" stroke-linejoin="round" fill="#eee" fill-opacity="0.5" fill-rule="evenodd" d="M336 302L337 299L340 298L343 303L347 303L349 301L352 304L354 301L356 301L355 300L357 298L361 297L361 295L368 288L368 286L368 288L371 287L372 284L373 285L372 282L373 283L381 279L384 280L387 274L377 274L377 272L371 270L367 271L368 272L364 275L364 277L360 277L357 273L360 272L360 270L357 267L354 268L349 265L344 270L340 270L337 273L336 272L336 274L335 273L336 274L333 275L333 277L328 282L328 291L334 287L334 289L332 289L324 297L331 303L336 302zM371 269L372 269zM371 268L371 268zM374 284L373 284zM372 267L372 266zM373 265L373 264zM367 291L367 290zM371 269L370 268zM372 265L372 265zM378 272L378 272zM378 272L378 272zM378 272L378 272zM329 289L329 289z"/><path class="leaflet-interactive" stroke="#3388ff" stroke-opacity="0" stroke-width="3" stroke-linecap="round" stroke-linejoin="round" fill="#eee" fill-opacity="0.5" fill-rule="evenodd" d="M307 324L310 323L313 325L315 323L317 330L322 330L323 332L326 331L328 333L329 330L333 329L333 323L329 323L327 319L324 318L328 316L331 307L335 311L339 309L335 302L329 302L329 300L327 300L326 298L325 299L324 296L334 288L329 289L328 291L329 288L327 286L325 288L316 285L314 292L309 296L302 295L301 298L288 303L295 319L302 324L306 324zM315 324L315 325z"/><path class="leaflet-interactive" stroke="#3388ff" stroke-opacity="0" stroke-width="3" stroke-linecap="round" stroke-linejoin="round" fill="#eee" fill-opacity="0.5" fill-rule="evenodd" d="M294 316L281 316L284 319L286 319L285 322L282 321L281 325L282 330L286 333L287 337L280 341L272 341L274 344L272 348L274 348L277 351L276 352L278 351L279 354L280 351L282 349L283 350L283 348L290 349L290 345L300 347L303 350L307 350L309 348L310 351L314 347L314 353L316 355L319 352L325 352L324 351L330 347L333 349L334 348L334 344L332 342L332 338L334 336L330 335L326 331L323 332L322 329L317 330L315 324L302 324L299 321L298 322L294 316zM278 341L278 341zM294 316L294 316zM307 324L307 324zM308 348L309 348z"/><path class="leaflet-interactive" stroke="#3388ff" stroke-opacity="0" stroke-width="3" stroke-linecap="round" stroke-linejoin="round" fill="#eee" fill-opacity="0.5" fill-rule="evenodd" d="M301 394L303 390L307 390L307 392L309 392L308 389L310 387L314 389L317 386L317 382L319 381L317 381L318 378L316 376L316 370L314 370L314 368L315 365L318 364L317 363L319 361L319 357L316 354L315 355L314 348L310 351L309 348L307 350L303 350L300 347L289 345L289 349L281 349L279 353L279 364L281 368L279 370L278 369L278 371L275 373L280 372L282 374L282 376L280 376L279 379L284 384L284 381L288 383L290 380L296 380L295 383L297 383L293 392L297 390L297 394L301 393zM281 376L281 376z"/><path class="leaflet-interactive" stroke="#3388ff" stroke-opacity="0" stroke-width="3" stroke-linecap="round" stroke-linejoin="round" fill="#eee" fill-opacity="0.5" fill-rule="evenodd" d="M314 416L315 412L321 414L322 411L324 413L327 410L329 412L331 410L337 410L340 407L340 405L343 404L340 394L337 395L338 394L336 392L332 392L332 395L330 395L329 393L321 396L319 394L323 390L322 388L317 389L317 387L311 387L309 389L308 388L310 390L308 392L306 390L302 391L303 392L301 394L301 400L296 405L297 408L294 412L291 413L290 416L288 416L287 419L286 418L284 421L283 420L284 423L282 427L284 433L288 433L290 431L287 428L289 424L301 421L303 419L311 419L314 416zM342 405L342 405zM308 420L307 421L308 420zM305 421L306 421zM319 417L319 417zM289 425L290 426L290 424L289 425zM305 421L305 420zM289 426L287 426L290 426zM315 418L315 418zM315 418L315 418zM310 419L310 419zM316 414L316 414zM319 418L319 418zM319 418L318 418zM340 428L341 429L339 430L341 430L340 428zM309 419L309 419zM288 429L288 429zM290 427L290 427zM290 432L290 432zM333 425L334 426L333 425zM333 426L333 426zM332 411L332 411zM332 411L332 411z"/><path class="leaflet-interactive" stroke="#3388ff" stroke-opacity="0" stroke-width="3" stroke-linecap="round" stroke-linejoin="round" fill="#eee" fill-opacity="0.5" fill-rule="evenodd" d="M281 382L280 385L277 384L276 385L278 385L276 387L275 386L274 389L273 387L271 387L270 390L268 390L262 386L260 390L253 394L246 391L243 395L241 395L248 400L253 399L255 401L254 404L252 404L249 407L252 410L257 409L259 411L257 415L259 416L258 418L269 422L274 420L277 421L277 423L279 423L282 421L283 422L283 420L284 421L287 418L288 419L288 417L291 416L291 414L297 409L297 403L301 401L300 399L302 397L300 393L297 395L296 390L294 392L293 391L297 384L295 384L295 380L290 380L287 383L285 381L284 384L281 382zM246 392L246 392zM278 426L278 426z"/><path class="leaflet-interactive" stroke="#3388ff" stroke-opacity="0" stroke-width="3" stroke-linecap="round" stroke-linejoin="round" fill="#eee" fill-opacity="0.5" fill-rule="evenodd" d="M286 435L279 436L274 441L274 447L276 449L282 451L290 445L290 442L294 438L291 434L286 434zM297 460L298 459L297 460zM347 476L347 475zM299 467L300 467zM298 467L299 467zM301 466L301 466zM299 465L300 464L299 465zM303 460L304 461L303 460zM305 469L306 468L305 469zM321 511L322 511zM305 466L305 466zM304 461L304 461zM297 465L298 465zM323 510L324 509L323 510zM322 507L322 506zM325 511L325 511zM298 465L298 465zM339 506L340 507L339 506zM299 464L299 464zM305 465L306 464L305 465zM299 468L300 468zM323 467L323 467zM348 511L348 511zM323 506L323 506zM318 511L318 511zM319 468L319 468zM321 472L321 472zM325 509L326 509zM318 469L318 469zM339 466L339 466zM309 439L309 439zM321 468L321 468zM316 442L316 442zM328 486L328 486zM316 473L316 473zM303 462L303 462zM303 471L303 471zM317 470L317 470zM325 468L325 469zM306 465L307 465zM295 436L295 436zM307 466L307 466zM322 472L322 472zM344 509L344 510zM347 510L347 510z"/><path class="leaflet-interactive" stroke="#3388ff" stroke-opacity="0" stroke-width="3" stroke-linecap="round" stroke-linejoin="round" fill="#eee" fill-opacity="0.5" fill-rule="evenodd" d="M256 360L257 357L258 360L262 356L263 357L265 353L267 353L268 356L272 354L272 358L274 358L274 360L277 363L280 359L280 355L278 351L276 351L276 349L272 348L274 344L272 342L274 342L275 340L278 341L286 338L287 335L285 332L283 330L279 330L277 327L273 325L273 327L271 327L273 331L269 335L270 334L268 339L264 339L265 340L261 346L259 346L258 343L255 344L251 342L251 344L249 344L251 346L248 352L251 353L251 355L253 355L256 359zM278 340L278 341zM250 345L250 345zM278 341L278 341zM261 346L261 346z"/><path class="leaflet-interactive" stroke="#3388ff" stroke-opacity="0" stroke-width="3" stroke-linecap="round" stroke-linejoin="round" fill="#eee" fill-opacity="0.5" fill-rule="evenodd" d="M214 372L219 382L228 379L228 371L233 366L233 362L234 363L236 361L235 360L239 358L239 362L241 362L239 364L241 366L247 364L248 367L255 367L255 363L251 361L250 362L250 360L253 357L256 360L255 356L251 356L251 354L247 350L251 347L250 344L249 345L252 342L255 344L258 343L258 345L261 346L265 339L269 338L269 334L273 331L271 327L273 327L273 325L269 325L266 323L265 324L265 322L262 323L261 320L254 321L254 319L252 319L250 321L249 318L248 321L242 321L239 318L240 315L238 311L231 310L228 305L223 308L225 312L220 317L219 312L218 317L214 315L215 320L209 322L207 320L206 321L204 317L203 320L196 317L192 307L186 307L184 311L187 314L184 316L185 317L183 319L191 325L195 333L193 335L196 339L198 360L200 363L200 359L202 357L206 361L205 364L208 367L210 365L214 372zM255 344L255 344zM261 345L261 345zM249 344L249 344z"/><path class="leaflet-interactive" stroke="#3388ff" stroke-opacity="0" stroke-width="3" stroke-linecap="round" stroke-linejoin="round" fill="#eee" fill-opacity="0.5" fill-rule="evenodd" d="M279 360L278 363L276 363L275 360L274 361L274 359L272 358L272 354L268 356L268 354L265 353L264 356L262 356L258 360L257 357L256 360L253 357L250 360L250 362L251 361L255 363L255 366L249 366L246 370L243 371L240 369L238 371L236 369L234 373L235 378L242 377L239 386L242 389L244 389L241 393L243 395L247 391L253 395L255 393L254 392L260 390L262 386L264 387L264 389L269 390L271 388L270 387L274 388L274 386L276 387L278 385L276 385L277 384L280 385L281 380L279 380L279 376L281 376L281 372L276 373L278 371L277 370L281 368L279 360zM281 375L281 375zM281 376L282 376z"/><path class="leaflet-interactive" stroke="#3388ff" stroke-opacity="0" stroke-width="3" stroke-linecap="round" stroke-linejoin="round" fill="#eee" fill-opacity="0.5" fill-rule="evenodd" d="M247 367L245 363L244 365L241 366L239 364L241 362L239 362L240 359L236 359L236 361L234 363L233 362L232 367L228 371L229 378L226 381L226 379L220 382L213 372L211 368L212 367L210 365L208 367L205 364L206 361L202 357L200 359L200 363L198 361L198 353L196 353L196 357L194 355L193 358L195 361L193 363L191 361L190 362L191 369L194 368L195 371L195 381L193 381L194 383L186 391L187 392L185 396L187 398L185 400L186 401L190 399L196 399L194 401L196 404L195 405L197 408L201 408L198 416L203 417L207 422L211 422L213 420L215 422L214 423L218 425L219 420L217 415L219 413L222 414L225 411L229 414L232 411L236 413L239 410L240 412L244 410L243 409L246 406L249 407L252 404L254 404L255 401L253 399L248 400L245 396L241 396L243 391L243 389L240 386L242 377L240 376L236 378L234 375L236 369L238 371L240 369L244 371L247 368z"/><path class="leaflet-interactive" stroke="#3388ff" stroke-opacity="0" stroke-width="3" stroke-linecap="round" stroke-linejoin="round" fill="#eee" fill-opacity="0.5" fill-rule="evenodd" d="M122 287L113 284L103 284L95 286L92 291L91 290L89 292L86 290L77 295L68 294L67 291L63 291L63 293L61 293L59 296L47 294L47 296L45 298L44 297L43 302L41 304L37 304L33 308L33 312L38 319L37 324L35 324L34 321L31 322L31 326L34 328L34 334L37 337L40 336L45 341L46 340L50 342L54 346L56 342L61 343L73 354L75 352L78 353L77 354L82 359L85 358L87 362L90 361L92 365L94 363L94 365L98 363L101 366L109 366L111 364L115 364L114 369L116 371L123 362L131 364L133 366L135 364L137 368L141 370L142 375L153 374L159 368L164 367L167 365L167 363L170 362L174 362L181 366L184 364L183 363L185 359L190 363L190 361L194 363L194 355L196 357L196 353L198 353L196 344L197 343L195 336L193 334L196 333L192 329L190 323L183 322L184 325L183 324L182 327L178 327L179 330L175 328L174 331L172 329L169 330L167 328L168 325L165 325L166 324L161 321L153 323L148 320L142 320L137 317L131 317L127 315L121 308L123 306L123 299L121 299L120 296L123 290L119 288L122 287z"/><path class="leaflet-interactive" stroke="#3388ff" stroke-opacity="0" stroke-width="3" stroke-linecap="round" stroke-linejoin="round" fill="#eee" fill-opacity="0.5" fill-rule="evenodd" d="M288 302L287 299L290 292L288 278L292 272L289 266L293 262L293 258L295 255L294 252L290 255L286 253L287 254L285 256L284 255L285 256L278 263L278 268L276 268L274 272L270 272L267 269L263 273L263 279L270 283L271 282L274 285L274 295L267 295L267 299L257 297L258 300L256 302L259 305L257 305L258 307L256 309L258 312L252 312L251 315L253 316L251 319L249 319L253 319L255 321L261 320L262 323L265 322L265 324L266 323L269 326L272 325L282 330L281 323L283 321L287 321L284 318L283 319L283 317L281 316L290 315L291 317L293 315L288 302zM293 313L293 313zM254 320L254 320z"/><path class="leaflet-interactive" stroke="#3388ff" stroke-opacity="0" stroke-width="3" stroke-linecap="round" stroke-linejoin="round" fill="#eee" fill-opacity="0.5" fill-rule="evenodd" d="M257 291L256 296L252 294L253 293L251 293L248 290L248 280L241 274L236 273L234 270L232 270L232 264L236 262L239 257L237 253L232 254L229 257L224 255L221 256L221 259L219 261L212 258L211 254L209 254L203 249L200 249L205 245L207 241L206 238L198 238L198 240L197 239L194 241L194 239L191 241L191 238L188 236L186 232L186 226L182 217L174 219L172 221L174 224L173 227L167 230L164 229L156 236L154 240L148 241L146 251L143 255L144 258L146 256L150 256L150 259L154 259L156 261L159 260L161 264L170 264L174 267L176 265L178 266L178 264L181 261L181 256L190 260L191 257L193 259L195 257L198 258L197 259L204 265L206 266L206 263L209 266L210 265L214 270L222 272L229 288L220 300L220 302L223 305L219 307L212 304L211 305L214 311L219 313L220 312L220 316L223 315L222 314L224 314L225 312L223 311L222 308L224 308L227 305L230 307L231 310L238 311L240 315L239 318L242 321L248 321L249 318L252 318L252 312L258 312L257 305L259 305L256 302L258 300L257 297L266 299L268 298L266 296L267 295L273 296L273 290L275 288L274 284L265 280L262 277L258 277L258 281L256 283L257 286L261 288L260 291L258 291zM253 293L254 293zM227 285L228 285zM254 294L254 294zM257 291L257 291z"/><path class="leaflet-interactive" stroke="#3388ff" stroke-opacity="0" stroke-width="3" stroke-linecap="round" stroke-linejoin="round" fill="#eee" fill-opacity="0.5" fill-rule="evenodd" d="M227 285L227 281L221 271L220 272L218 270L214 270L212 266L211 267L206 263L206 265L204 265L196 257L194 257L193 259L191 257L189 260L184 256L180 256L181 261L178 264L178 266L176 265L174 267L170 264L161 265L159 260L156 261L154 259L150 259L150 257L147 256L135 261L130 261L125 264L126 266L129 265L128 271L135 277L130 280L130 282L133 283L133 286L131 288L125 286L123 288L119 288L123 290L120 295L120 297L123 300L123 306L121 308L127 315L131 317L134 316L142 320L151 321L153 323L161 321L168 326L167 328L169 330L172 329L174 331L175 328L179 330L178 327L179 328L182 327L183 324L184 325L183 322L185 322L184 317L186 314L184 310L187 306L192 308L195 315L199 319L202 320L204 318L206 320L205 321L208 320L210 322L215 320L214 315L217 315L218 317L219 313L215 311L211 306L213 304L218 307L223 305L220 302L220 300L224 296L223 295L227 293L226 291L229 288L228 285z"/><path class="leaflet-interactive" stroke="#3388ff" stroke-opacity="0" stroke-width="3" stroke-linecap="round" stroke-linejoin="round" fill="#eee" fill-opacity="0.5" fill-rule="evenodd" d="M263 277L263 273L266 270L263 267L257 265L261 258L259 254L255 255L255 257L254 256L252 260L252 268L250 271L239 274L241 274L248 281L247 282L249 286L249 291L251 291L251 293L253 293L256 296L256 291L260 291L261 288L257 285L257 279L259 277L263 277zM253 293L253 294zM254 294L254 294z"/><path class="leaflet-interactive" stroke="#3388ff" stroke-opacity="0" stroke-width="3" stroke-linecap="round" stroke-linejoin="round" fill="#eee" fill-opacity="0.5" fill-rule="evenodd" d="M176 218L172 213L169 204L167 204L168 201L164 201L152 193L142 193L136 191L135 192L133 190L132 191L130 186L133 181L131 178L133 174L132 170L130 170L126 161L120 157L117 158L113 156L113 154L108 150L109 149L106 148L106 143L104 145L99 144L99 148L94 153L92 152L88 156L90 165L88 169L84 171L75 170L68 167L62 185L62 187L65 189L64 191L59 190L58 188L56 190L49 192L48 191L43 194L47 197L47 203L50 210L50 213L47 215L48 216L45 219L46 224L41 228L29 233L28 235L26 235L26 237L19 237L14 244L11 243L9 245L9 241L5 243L2 242L3 244L1 244L-2 247L-3 246L-6 249L-5 252L-8 253L-7 258L-6 257L-7 260L-4 263L-3 261L2 263L4 271L3 272L5 274L3 276L-1 276L10 281L12 283L11 288L14 290L15 289L23 294L28 293L28 297L30 299L29 301L35 305L43 303L44 298L47 296L47 294L59 296L64 291L66 291L69 294L74 295L86 290L88 292L91 291L96 286L100 286L103 284L113 284L123 288L125 286L131 288L133 284L130 281L135 277L129 271L129 265L126 266L125 263L143 258L148 241L154 240L158 234L164 229L166 229L167 231L169 228L171 228L174 224L172 221L174 219z"/><path class="leaflet-interactive" stroke="#3388ff" stroke-opacity="0" stroke-width="3" stroke-linecap="round" stroke-linejoin="round" fill="#eee" fill-opacity="0.5" fill-rule="evenodd" d="M369 414L372 419L373 413L377 408L381 396L381 390L375 390L370 396L368 402L366 403L368 413zM402 383L402 383zM393 385L394 384L393 385zM363 404L362 405zM395 383L395 383zM362 403L361 404L362 403zM362 406L362 406zM362 403L362 403zM382 386L382 386zM377 412L378 412zM378 417L378 417zM382 387L383 387zM361 407L361 407zM368 415L369 415z"/><path class="leaflet-interactive" stroke="#3388ff" stroke-opacity="0" stroke-width="3" stroke-linecap="round" stroke-linejoin="round" fill="#eee" fill-opacity="0.5" fill-rule="evenodd" d="M318 413L318 415L316 415L317 416L321 414L318 413zM318 416L319 416zM320 414L320 414zM320 414L320 414zM320 414L320 414zM320 415L320 415zM320 414L320 414zM320 415L320 415zM320 415L320 415z"/><path class="leaflet-interactive" stroke="#3388ff" stroke-opacity="0" stroke-width="3" stroke-linecap="round" stroke-linejoin="round" fill="#eee" fill-opacity="0.5" fill-rule="evenodd" d="M314 417L314 416zM314 416L314 416z"/><path class="leaflet-interactive" stroke="#3388ff" stroke-opacity="0" stroke-width="3" stroke-linecap="round" stroke-linejoin="round" fill="#eee" fill-opacity="0.5" fill-rule="evenodd" d="M386 405L388 395L386 405zM375 428L381 420L375 428zM361 452L366 443L361 452zM358 477L358 468L358 477zM355 509L354 511L357 502L356 505zM286 507L288 504L288 500L287 506zM284 475L280 467L283 473z"/></g></svg>